{
  "asset": {
    "generator": "glTF-Transform v4.3.0",
    "version": "2.0"
  },
  "accessors": [
    {
      "type": "SCALAR",
      "componentType": 5123,
      "count": 3048,
      "normalized": false,
      "byteOffset": 0,
      "bufferView": 0
    },
    {
      "type": "VEC3",
      "componentType": 5120,
      "count": 1219,
      "normalized": true,
      "byteOffset": 0,
      "bufferView": 1
    },
    {
      "type": "VEC3",
      "componentType": 5122,
      "count": 1219,
      "max": [
        8625,
        27595,
        32767
      ],
      "min": [
        -8625,
        -27595,
        -32767
      ],
      "normalized": true,
      "byteOffset": 0,
      "bufferView": 2
    },
    {
      "type": "VEC2",
      "componentType": 5123,
      "count": 1219,
      "normalized": true,
      "byteOffset": 0,
      "bufferView": 3
    }
  ],
  "bufferViews": [
    {
      "buffer": 2,
      "byteOffset": 0,
      "byteLength": 6096,
      "target": 34963,
      "extensions": {
        "EXT_meshopt_compression": {
          "buffer": 0,
          "byteOffset": 0,
          "byteLength": 1101,
          "mode": "TRIANGLES",
          "byteStride": 2,
          "count": 3048
        }
      }
    },
    {
      "buffer": 2,
      "byteOffset": 6096,
      "byteLength": 4876,
      "target": 34962,
      "byteStride": 4,
      "extensions": {
        "EXT_meshopt_compression": {
          "buffer": 1,
          "byteOffset": 0,
          "byteLength": 692,
          "mode": "ATTRIBUTES",
          "filter": "OCTAHEDRAL",
          "byteStride": 4,
          "count": 1219
        }
      }
    },
    {
      "buffer": 2,
      "byteOffset": 10972,
      "byteLength": 9752,
      "target": 34962,
      "byteStride": 8,
      "extensions": {
        "EXT_meshopt_compression": {
          "buffer": 1,
          "byteOffset": 692,
          "byteLength": 5173,
          "mode": "ATTRIBUTES",
          "byteStride": 8,
          "count": 1219
        }
      }
    },
    {
      "buffer": 2,
      "byteOffset": 20724,
      "byteLength": 4876,
      "target": 34962,
      "byteStride": 4,
      "extensions": {
        "EXT_meshopt_compression": {
          "buffer": 1,
          "byteOffset": 5868,
          "byteLength": 190,
          "mode": "ATTRIBUTES",
          "byteStride": 4,
          "count": 1219
        }
      }
    }
  ],
  "samplers": [
    {
      "wrapS": 10497,
      "wrapT": 10497
    }
  ],
  "textures": [
    {
      "source": 0,
      "sampler": 0
    }
  ],
  "images": [
    {
      "mimeType": "image/png",
      "uri": "baseColor.png"
    }
  ],
  "buffers": [
    {
      "uri": "dummy.gltf.opt-tmp_1.bin",
      "byteLength": 1104
    },
    {
      "uri": "dummy.gltf.opt-tmp_2.bin",
      "byteLength": 6060
    },
    {
      "byteLength": 25600,
      "extensions": {
        "EXT_meshopt_compression": {
          "fallback": true
        }
      }
    }
  ],
  "materials": [
    {
      "name": "Material.1",
      "pbrMetallicRoughness": {
        "roughnessFactor": 0.5,
        "metallicFactor": 0.200000003,
        "baseColorTexture": {
          "index": 0
        }
      }
    }
  ],
  "meshes": [
    {
      "primitives": [
        {
          "attributes": {
            "NORMAL": 1,
            "POSITION": 2,
            "TEXCOORD_0": 3
          },
          "mode": 4,
          "material": 0,
          "indices": 0
        }
      ]
    }
  ],
  "nodes": [
    {
      "name": "Layer.1",
      "translation": [
        0.5,
        9.5,
        2.1094237467877974e-15
      ],
      "rotation": [
        -0.7071067811865475,
        0,
        0,
        0.7071067811865476
      ],
      "scale": [
        9.5,
        9.5,
        9.5
      ],
      "mesh": 0
    }
  ],
  "scenes": [
    {
      "nodes": [
        0
      ]
    }
  ],
  "extensionsUsed": [
    "EXT_meshopt_compression",
    "KHR_mesh_quantization"
  ],
  "extensionsRequired": [
    "EXT_meshopt_compression",
    "KHR_mesh_quantization"
  ]
}